<svg width="20" height="20" viewBox="0 0 20 20" fill="none" xmlns="http://www.w3.org/2000/svg">
<path d="M19.9935 3.62891C19.9407 4.02398 19.6044 4.31951 19.2053 4.32051C19.1705 4.32051 19.1347 4.31752 19.0998 4.31354L17.7166 4.13044C19.4073 6.52769 19.9288 9.5589 19.1357 12.3831C18.3435 15.2072 16.3214 17.5249 13.6297 18.6932C10.9391 19.8605 7.86501 19.754 5.2607 18.4036C2.65639 17.0533 0.799521 14.6012 0.203406 11.7294C-0.392658 8.85663 0.336752 5.86918 2.18867 3.59427C4.04058 1.31943 6.81901 -0.00101841 9.75245 5.89345e-07C10.1923 5.89345e-07 10.5485 0.356243 10.5485 0.796094C10.5485 1.23595 10.1923 1.59219 9.75245 1.59219C7.29452 1.5902 4.96596 2.69477 3.41249 4.60053C1.8591 6.50618 1.24811 9.00999 1.74666 11.4171C2.2452 13.8243 3.80157 15.8793 5.98391 17.0107C8.1662 18.1431 10.7416 18.2317 12.9974 17.2525C15.2524 16.2733 16.9461 14.3308 17.6097 11.9644C18.2724 9.59699 17.8346 7.05637 16.4165 5.04843L16.3409 6.80183V6.80282C16.322 7.22774 15.9717 7.56409 15.5458 7.56409C15.5339 7.56409 15.5229 7.56409 15.511 7.5631C15.0721 7.54419 14.7308 7.17302 14.7497 6.73417L14.9099 3.0273C14.9109 3.01536 14.9139 3.00541 14.9149 2.99347C14.9159 2.98551 14.9149 2.97754 14.9159 2.96958V2.95764C14.9179 2.94172 14.9238 2.9258 14.9268 2.90988C14.9318 2.88599 14.9368 2.86311 14.9428 2.84022C14.9467 2.82828 14.9477 2.81534 14.9517 2.8034C14.9567 2.78847 14.9646 2.77553 14.9706 2.76061C14.9796 2.73971 14.9885 2.71782 14.9995 2.69792C15.0054 2.68598 15.0104 2.67304 15.0174 2.6611C15.0263 2.64617 15.0373 2.63423 15.0472 2.6193C15.0592 2.60239 15.0701 2.58547 15.0831 2.56955C15.087 2.56457 15.09 2.5586 15.094 2.55363C15.1 2.54666 15.104 2.5387 15.1099 2.53173C15.1219 2.5178 15.1358 2.50885 15.1487 2.49591C15.1617 2.48298 15.1726 2.47302 15.1856 2.46108C15.1985 2.45014 15.2094 2.43819 15.2224 2.42725C15.2383 2.41531 15.2562 2.40536 15.2731 2.39441C15.2851 2.38645 15.297 2.37948 15.309 2.37351C15.3239 2.36456 15.3378 2.3546 15.3537 2.34664C15.3716 2.33769 15.3906 2.33172 15.4095 2.32475C15.4224 2.31977 15.4363 2.3148 15.4503 2.30982C15.4672 2.30385 15.4821 2.29689 15.499 2.29191C15.5169 2.28694 15.5348 2.28495 15.5528 2.28196C15.5707 2.27798 15.5886 2.27599 15.6065 2.273C15.6214 2.27101 15.6364 2.26703 15.6523 2.26604C15.6682 2.26504 15.6851 2.26703 15.701 2.26703C15.713 2.26703 15.7249 2.26405 15.7379 2.26504C15.7508 2.26504 15.7607 2.26902 15.7727 2.27002C15.7787 2.27101 15.7846 2.27002 15.7906 2.27101C15.7966 2.27201 15.8025 2.27101 15.8085 2.27201H15.8105L19.3064 2.73573L19.3084 2.73474C19.5174 2.7626 19.7075 2.87206 19.8358 3.04023C19.9642 3.20741 20.0209 3.41938 19.9931 3.62934L19.9935 3.62891Z" fill="#2D2D2D"/>
</svg>
