<svg width="20" height="20" viewBox="0 0 20 20" fill="none" xmlns="http://www.w3.org/2000/svg">
<path d="M0.722565 0H7.54983C7.95138 0 8.27247 0.321092 8.27247 0.722643V7.54988C8.27247 7.95143 7.95138 8.27252 7.54983 8.27252H0.642167C0.321073 8.27252 0 7.95143 0 7.54988V0.642245C0 0.321152 0.321093 8.00114e-05 0.722645 8.00114e-05L0.722565 0ZM6.90684 1.36559H1.36475V6.90766H6.90684V1.36559Z" fill="#2D2D2D"/>
<path d="M12.4502 0H19.2774C19.679 0 20.0001 0.321092 20.0001 0.722643V7.54988C20.0001 7.95143 19.679 8.27252 19.2774 8.27252H12.4502C12.0486 8.27252 11.7275 7.95143 11.7275 7.54988V0.642245C11.7275 0.321152 12.0486 8.00114e-05 12.4502 8.00114e-05V0ZM18.6345 1.36559H13.0924V6.90766H18.6345V1.36559Z" fill="#2D2D2D"/>
<path d="M0.722645 11.0037H7.6303C8.03186 11.0037 8.27247 11.3248 8.27247 11.6458V18.5535C8.27247 18.955 7.95138 19.2761 7.6303 19.2761H0.722645C0.321093 19.2761 0 18.955 0 18.5535V11.6458C0 11.2443 0.321093 11.0037 0.722645 11.0037ZM6.90692 12.3692H1.36483V17.9113H6.90692V12.3692Z" fill="#2D2D2D"/>
<path d="M12.3697 11.0037H19.2774C19.6789 11.0037 20 11.3248 20 11.6458V18.5535C20 18.955 19.6789 19.2761 19.2774 19.2761H12.3697C11.9682 19.2761 11.7275 18.955 11.7275 18.5535V11.6458C11.7275 11.2443 12.0486 11.0037 12.3697 11.0037ZM18.6344 12.3692H13.0923V17.9113H18.6344V12.3692Z" fill="#2D2D2D"/>
</svg>
